<?xml version="1.0" encoding="UTF-8" standalone="no"?>
<!DOCTYPE svg PUBLIC "-//W3C//DTD SVG 1.1//EN"
 "http://www.w3.org/Graphics/SVG/1.1/DTD/svg11.dtd">
<!-- Generated by graphviz version 2.38.0 (20140413.2041)
 -->
<!-- Title: G Pages: 1 -->
<svg width="1354pt" height="617pt"
 viewBox="0.00 0.00 1354.00 617.00" xmlns="http://www.w3.org/2000/svg" xmlns:xlink="http://www.w3.org/1999/xlink">
<g id="graph0" class="graph" transform="scale(1 1) rotate(0) translate(4 613)">
<title>G</title>
<polygon fill="white" stroke="none" points="-4,4 -4,-613 1350,-613 1350,4 -4,4"/>
<!-- apparat/server -->
<g id="node1" class="node"><title>apparat/server</title>
<path fill="#eeeeee" stroke="black" stroke-width="2" d="M517.5,-609C517.5,-609 446.5,-609 446.5,-609 440.5,-609 434.5,-603 434.5,-597 434.5,-597 434.5,-585 434.5,-585 434.5,-579 440.5,-573 446.5,-573 446.5,-573 517.5,-573 517.5,-573 523.5,-573 529.5,-579 529.5,-585 529.5,-585 529.5,-597 529.5,-597 529.5,-603 523.5,-609 517.5,-609"/>
<text text-anchor="middle" x="482" y="-587.3" font-family="Times New Roman,serif" font-size="14.00" fill="#314b5f">apparat/server</text>
</g>
<!-- php -->
<g id="node2" class="node"><title>php</title>
<path fill="#eeeeee" stroke="black" d="M630,-36C630,-36 600,-36 600,-36 594,-36 588,-30 588,-24 588,-24 588,-12 588,-12 588,-6 594,-0 600,-0 600,-0 630,-0 630,-0 636,-0 642,-6 642,-12 642,-12 642,-24 642,-24 642,-30 636,-36 630,-36"/>
<text text-anchor="middle" x="615" y="-14.3" font-family="Times New Roman,serif" font-size="14.00" fill="#314b5f">php</text>
</g>
<!-- apparat/server&#45;&gt;php -->
<g id="edge1" class="edge"><title>apparat/server&#45;&gt;php</title>
<path fill="none" stroke="#1a2833" d="M434.465,-586.969C312.864,-578.582 0,-552.753 0,-509 0,-509 0,-509 0,-100 0,-41.4132 444.366,-23.9009 577.651,-19.9659"/>
<polygon fill="#1a2833" stroke="#1a2833" points="577.885,-23.4607 587.781,-19.6755 577.684,-16.4636 577.885,-23.4607"/>
<text text-anchor="middle" x="14.5" y="-314.5" font-family="Times New Roman,serif" font-size="10.00" fill="#767676">&gt;=5.6.0</text>
</g>
<!-- apparat/object -->
<g id="node3" class="node"><title>apparat/object</title>
<path fill="#eeeeee" stroke="black" d="M916,-526C916,-526 776,-526 776,-526 770,-526 764,-520 764,-514 764,-514 764,-502 764,-502 764,-496 770,-490 776,-490 776,-490 916,-490 916,-490 922,-490 928,-496 928,-502 928,-502 928,-514 928,-514 928,-520 922,-526 916,-526"/>
<text text-anchor="middle" x="846" y="-504.3" font-family="Times New Roman,serif" font-size="14.00" fill="#314b5f">apparat/object: dev&#45;master</text>
</g>
<!-- apparat/server&#45;&gt;apparat/object -->
<g id="edge2" class="edge"><title>apparat/server&#45;&gt;apparat/object</title>
<path fill="none" stroke="#1a2833" d="M529.587,-579.411C587.839,-566.448 687.598,-544.249 759.549,-528.238"/>
<polygon fill="#1a2833" stroke="#1a2833" points="760.509,-531.61 769.51,-526.021 758.988,-524.777 760.509,-531.61"/>
<text text-anchor="middle" x="708.5" y="-547" font-family="Times New Roman,serif" font-size="10.00" fill="#767676">dev&#45;master</text>
</g>
<!-- dominicsayers/isemail -->
<g id="node4" class="node"><title>dominicsayers/isemail</title>
<path fill="#eeeeee" stroke="black" d="M1334,-418C1334,-418 1152,-418 1152,-418 1146,-418 1140,-412 1140,-406 1140,-406 1140,-394 1140,-394 1140,-388 1146,-382 1152,-382 1152,-382 1334,-382 1334,-382 1340,-382 1346,-388 1346,-394 1346,-394 1346,-406 1346,-406 1346,-412 1340,-418 1334,-418"/>
<text text-anchor="middle" x="1243" y="-396.3" font-family="Times New Roman,serif" font-size="14.00" fill="#314b5f">dominicsayers/isemail: dev&#45;master</text>
</g>
<!-- apparat/server&#45;&gt;dominicsayers/isemail -->
<g id="edge3" class="edge"><title>apparat/server&#45;&gt;dominicsayers/isemail</title>
<path fill="none" stroke="#1a2833" d="M529.572,-583.493C580.431,-576.519 663.43,-565.088 735,-555 951.115,-524.538 1054.49,-615.421 1219,-472 1231.55,-461.06 1237.55,-443.321 1240.41,-428.311"/>
<polygon fill="#1a2833" stroke="#1a2833" points="1243.94,-428.415 1241.99,-418 1237.02,-427.355 1243.94,-428.415"/>
<text text-anchor="middle" x="1214.5" y="-505.5" font-family="Times New Roman,serif" font-size="10.00" fill="#767676">dev&#45;master</text>
</g>
<!-- aura/router -->
<g id="node5" class="node"><title>aura/router</title>
<path fill="#eeeeee" stroke="black" d="M368.5,-335C368.5,-335 281.5,-335 281.5,-335 275.5,-335 269.5,-329 269.5,-323 269.5,-323 269.5,-311 269.5,-311 269.5,-305 275.5,-299 281.5,-299 281.5,-299 368.5,-299 368.5,-299 374.5,-299 380.5,-305 380.5,-311 380.5,-311 380.5,-323 380.5,-323 380.5,-329 374.5,-335 368.5,-335"/>
<text text-anchor="middle" x="325" y="-313.3" font-family="Times New Roman,serif" font-size="14.00" fill="#314b5f">aura/router: 3.0.1</text>
</g>
<!-- apparat/server&#45;&gt;aura/router -->
<g id="edge4" class="edge"><title>apparat/server&#45;&gt;aura/router</title>
<path fill="none" stroke="#1a2833" d="M440.166,-572.834C401.282,-554.341 345.757,-520.838 321,-472 300.575,-431.707 308.844,-377.544 316.834,-345.354"/>
<polygon fill="#1a2833" stroke="#1a2833" points="320.312,-345.895 319.491,-335.332 313.545,-344.101 320.312,-345.895"/>
<text text-anchor="middle" x="329" y="-451.5" font-family="Times New Roman,serif" font-size="10.00" fill="#767676">^3.0</text>
</g>
<!-- zendframework/zend&#45;diactoros -->
<g id="node6" class="node"><title>zendframework/zend&#45;diactoros</title>
<path fill="#eeeeee" stroke="black" d="M240,-227C240,-227 40,-227 40,-227 34,-227 28,-221 28,-215 28,-215 28,-203 28,-203 28,-197 34,-191 40,-191 40,-191 240,-191 240,-191 246,-191 252,-197 252,-203 252,-203 252,-215 252,-215 252,-221 246,-227 240,-227"/>
<text text-anchor="middle" x="140" y="-205.3" font-family="Times New Roman,serif" font-size="14.00" fill="#314b5f">zendframework/zend&#45;diactoros: 1.3.8</text>
</g>
<!-- apparat/server&#45;&gt;zendframework/zend&#45;diactoros -->
<g id="edge5" class="edge"><title>apparat/server&#45;&gt;zendframework/zend&#45;diactoros</title>
<path fill="none" stroke="#1a2833" d="M434.344,-587.205C348.563,-580.86 177,-561.595 177,-509 177,-509 177,-509 177,-316 177,-287.603 165.017,-257.197 154.69,-236.266"/>
<polygon fill="#1a2833" stroke="#1a2833" points="157.795,-234.651 150.11,-227.357 151.569,-237.851 157.795,-234.651"/>
<text text-anchor="middle" x="185" y="-397.5" font-family="Times New Roman,serif" font-size="10.00" fill="#767676">^1.3</text>
</g>
<!-- typo3fluid/fluid -->
<g id="node7" class="node"><title>typo3fluid/fluid</title>
<path fill="#eeeeee" stroke="black" d="M471.5,-472C471.5,-472 358.5,-472 358.5,-472 352.5,-472 346.5,-466 346.5,-460 346.5,-460 346.5,-448 346.5,-448 346.5,-442 352.5,-436 358.5,-436 358.5,-436 471.5,-436 471.5,-436 477.5,-436 483.5,-442 483.5,-448 483.5,-448 483.5,-460 483.5,-460 483.5,-466 477.5,-472 471.5,-472"/>
<text text-anchor="middle" x="415" y="-450.3" font-family="Times New Roman,serif" font-size="14.00" fill="#314b5f">typo3fluid/fluid: 1.1.2</text>
</g>
<!-- apparat/server&#45;&gt;typo3fluid/fluid -->
<g id="edge6" class="edge"><title>apparat/server&#45;&gt;typo3fluid/fluid</title>
<path fill="none" stroke="#1a2833" d="M473.514,-572.902C462.099,-549.901 441.68,-508.759 428.236,-481.67"/>
<polygon fill="#1a2833" stroke="#1a2833" points="431.209,-479.787 423.628,-472.385 424.939,-482.899 431.209,-479.787"/>
<text text-anchor="middle" x="475.5" y="-547" font-family="Times New Roman,serif" font-size="10.00" fill="#767676">^1.0.7</text>
</g>
<!-- apparat/resource -->
<g id="node8" class="node"><title>apparat/resource</title>
<path fill="#eeeeee" stroke="black" d="M923,-418C923,-418 769,-418 769,-418 763,-418 757,-412 757,-406 757,-406 757,-394 757,-394 757,-388 763,-382 769,-382 769,-382 923,-382 923,-382 929,-382 935,-388 935,-394 935,-394 935,-406 935,-406 935,-412 929,-418 923,-418"/>
<text text-anchor="middle" x="846" y="-396.3" font-family="Times New Roman,serif" font-size="14.00" fill="#314b5f">apparat/resource: dev&#45;master</text>
</g>
<!-- apparat/server&#45;&gt;apparat/resource -->
<g id="edge7" class="edge"><title>apparat/server&#45;&gt;apparat/resource</title>
<path fill="none" stroke="#1a2833" stroke-dasharray="5,2" d="M514.945,-572.894C581.32,-538.43 731.024,-460.699 804.177,-422.716"/>
<polygon fill="#1a2833" stroke="#1a2833" points="805.868,-425.781 813.13,-418.067 802.642,-419.569 805.868,-425.781"/>
<text text-anchor="middle" x="683.5" y="-505.5" font-family="Times New Roman,serif" font-size="10.00" fill="#767676">@dev</text>
</g>
<!-- apparat/kernel -->
<g id="node9" class="node"><title>apparat/kernel</title>
<path fill="#eeeeee" stroke="black" d="M783.5,-335C783.5,-335 644.5,-335 644.5,-335 638.5,-335 632.5,-329 632.5,-323 632.5,-323 632.5,-311 632.5,-311 632.5,-305 638.5,-299 644.5,-299 644.5,-299 783.5,-299 783.5,-299 789.5,-299 795.5,-305 795.5,-311 795.5,-311 795.5,-323 795.5,-323 795.5,-329 789.5,-335 783.5,-335"/>
<text text-anchor="middle" x="714" y="-313.3" font-family="Times New Roman,serif" font-size="14.00" fill="#314b5f">apparat/kernel: dev&#45;master</text>
</g>
<!-- apparat/server&#45;&gt;apparat/kernel -->
<g id="edge8" class="edge"><title>apparat/server&#45;&gt;apparat/kernel</title>
<path fill="none" stroke="#1a2833" stroke-dasharray="5,2" d="M496.513,-572.985C536.142,-526.523 646.336,-397.33 692.851,-342.795"/>
<polygon fill="#1a2833" stroke="#1a2833" points="695.666,-344.888 699.493,-335.008 690.34,-340.345 695.666,-344.888"/>
<text text-anchor="middle" x="624.5" y="-451.5" font-family="Times New Roman,serif" font-size="10.00" fill="#767676">@dev</text>
</g>
<!-- apparat/object&#45;&gt;php -->
<g id="edge16" class="edge"><title>apparat/object&#45;&gt;php</title>
<path fill="none" stroke="#1a2833" d="M928.342,-490.658C1006.46,-472.725 1112,-441.08 1112,-401 1112,-401 1112,-401 1112,-100 1112,-53.4259 767.624,-28.2638 652.197,-21.1381"/>
<polygon fill="#1a2833" stroke="#1a2833" points="652.268,-17.636 642.074,-20.5234 651.843,-24.6232 652.268,-17.636"/>
<text text-anchor="middle" x="1126.5" y="-260.5" font-family="Times New Roman,serif" font-size="10.00" fill="#767676">&gt;=5.6.0</text>
</g>
<!-- apparat/object&#45;&gt;dominicsayers/isemail -->
<g id="edge14" class="edge"><title>apparat/object&#45;&gt;dominicsayers/isemail</title>
<path fill="none" stroke="#1a2833" d="M928.291,-501.406C997.719,-495.829 1091.19,-486.06 1126,-472 1150.73,-462.012 1151.36,-450.085 1174,-436 1181.46,-431.361 1189.61,-426.808 1197.61,-422.6"/>
<polygon fill="#1a2833" stroke="#1a2833" points="1199.24,-425.695 1206.54,-418.01 1196.04,-419.47 1199.24,-425.695"/>
<text text-anchor="middle" x="1196.5" y="-451.5" font-family="Times New Roman,serif" font-size="10.00" fill="#767676">dev&#45;master</text>
</g>
<!-- apparat/object&#45;&gt;apparat/resource -->
<g id="edge13" class="edge"><title>apparat/object&#45;&gt;apparat/resource</title>
<path fill="none" stroke="#1a2833" d="M846,-489.969C846,-473.378 846,-447.883 846,-428.431"/>
<polygon fill="#1a2833" stroke="#1a2833" points="849.5,-428.341 846,-418.341 842.5,-428.341 849.5,-428.341"/>
<text text-anchor="middle" x="868.5" y="-451.5" font-family="Times New Roman,serif" font-size="10.00" fill="#767676">dev&#45;master</text>
</g>
<!-- apparat/object&#45;&gt;apparat/kernel -->
<g id="edge18" class="edge"><title>apparat/object&#45;&gt;apparat/kernel</title>
<path fill="none" stroke="#1a2833" stroke-dasharray="5,2" d="M807.041,-489.899C778.59,-475.196 741.829,-451.108 723,-418 710.452,-395.936 709.267,-366.617 710.578,-345.436"/>
<polygon fill="#1a2833" stroke="#1a2833" points="714.09,-345.442 711.444,-335.183 707.115,-344.853 714.09,-345.442"/>
<text text-anchor="middle" x="735.5" y="-397.5" font-family="Times New Roman,serif" font-size="10.00" fill="#767676">@dev</text>
</g>
<!-- league/commonmark -->
<g id="node13" class="node"><title>league/commonmark</title>
<path fill="#eeeeee" stroke="black" d="M1071.5,-335C1071.5,-335 922.5,-335 922.5,-335 916.5,-335 910.5,-329 910.5,-323 910.5,-323 910.5,-311 910.5,-311 910.5,-305 916.5,-299 922.5,-299 922.5,-299 1071.5,-299 1071.5,-299 1077.5,-299 1083.5,-305 1083.5,-311 1083.5,-311 1083.5,-323 1083.5,-323 1083.5,-329 1077.5,-335 1071.5,-335"/>
<text text-anchor="middle" x="997" y="-313.3" font-family="Times New Roman,serif" font-size="14.00" fill="#314b5f">league/commonmark: 0.13.4</text>
</g>
<!-- apparat/object&#45;&gt;league/commonmark -->
<g id="edge15" class="edge"><title>apparat/object&#45;&gt;league/commonmark</title>
<path fill="none" stroke="#1a2833" d="M872.223,-489.825C879.827,-484.436 887.97,-478.254 895,-472 919.213,-450.459 925.378,-444.524 944,-418 960.569,-394.4 975.559,-364.994 985.335,-344.195"/>
<polygon fill="#1a2833" stroke="#1a2833" points="988.558,-345.564 989.573,-335.018 982.203,-342.63 988.558,-345.564"/>
<text text-anchor="middle" x="976.5" y="-397.5" font-family="Times New Roman,serif" font-size="10.00" fill="#767676">^0.13</text>
</g>
<!-- psr/http&#45;message -->
<g id="node14" class="node"><title>psr/http&#45;message</title>
<path fill="#eeeeee" stroke="black" d="M389,-119C389,-119 267,-119 267,-119 261,-119 255,-113 255,-107 255,-107 255,-95 255,-95 255,-89 261,-83 267,-83 267,-83 389,-83 389,-83 395,-83 401,-89 401,-95 401,-95 401,-107 401,-107 401,-113 395,-119 389,-119"/>
<text text-anchor="middle" x="328" y="-97.3" font-family="Times New Roman,serif" font-size="14.00" fill="#314b5f">psr/http&#45;message: 1.0.1</text>
</g>
<!-- apparat/object&#45;&gt;psr/http&#45;message -->
<g id="edge17" class="edge"><title>apparat/object&#45;&gt;psr/http&#45;message</title>
<path fill="none" stroke="#1a2833" d="M774.076,-489.941C759.978,-485.17 745.652,-479.249 733,-472 710.763,-459.259 439.521,-206.293 353.794,-126.14"/>
<polygon fill="#1a2833" stroke="#1a2833" points="356.015,-123.425 346.321,-119.151 351.234,-128.537 356.015,-123.425"/>
<text text-anchor="middle" x="584.5" y="-314.5" font-family="Times New Roman,serif" font-size="10.00" fill="#767676">~1.0</text>
</g>
<!-- aura/router&#45;&gt;php -->
<g id="edge23" class="edge"><title>aura/router&#45;&gt;php</title>
<path fill="none" stroke="#1a2833" d="M319.645,-298.829C310.867,-272.918 291.304,-223.413 261,-191 250.381,-179.642 238.661,-186.531 231,-173 211.02,-137.712 216.927,-111.27 246,-83 292.825,-37.4667 493.422,-23.9842 577.592,-20.29"/>
<polygon fill="#1a2833" stroke="#1a2833" points="577.886,-23.7809 587.732,-19.868 577.595,-16.787 577.886,-23.7809"/>
<text text-anchor="middle" x="245.5" y="-152.5" font-family="Times New Roman,serif" font-size="10.00" fill="#767676">&gt;=5.5.0</text>
</g>
<!-- aura/router&#45;&gt;zendframework/zend&#45;diactoros -->
<g id="edge26" class="edge"><title>aura/router&#45;&gt;zendframework/zend&#45;diactoros</title>
<path fill="none" stroke="#1a2833" stroke-dasharray="5,2" d="M285.012,-298.907C273.236,-293.521 260.445,-287.319 249,-281 234.346,-272.909 200.113,-250.381 173.89,-232.849"/>
<polygon fill="#1a2833" stroke="#1a2833" points="175.6,-229.781 165.344,-227.122 171.704,-235.596 175.6,-229.781"/>
<text text-anchor="middle" x="257.5" y="-260.5" font-family="Times New Roman,serif" font-size="10.00" fill="#767676">~1.0</text>
</g>
<!-- aura/router&#45;&gt;psr/http&#45;message -->
<g id="edge24" class="edge"><title>aura/router&#45;&gt;psr/http&#45;message</title>
<path fill="none" stroke="#1a2833" d="M325.24,-298.849C325.759,-261.832 326.988,-174.181 327.616,-129.386"/>
<polygon fill="#1a2833" stroke="#1a2833" points="331.118,-129.281 327.758,-119.232 324.118,-129.182 331.118,-129.281"/>
<text text-anchor="middle" x="335.5" y="-206.5" font-family="Times New Roman,serif" font-size="10.00" fill="#767676">~1.0</text>
</g>
<!-- psr/log -->
<g id="node16" class="node"><title>psr/log</title>
<path fill="#eeeeee" stroke="black" d="M535,-119C535,-119 469,-119 469,-119 463,-119 457,-113 457,-107 457,-107 457,-95 457,-95 457,-89 463,-83 469,-83 469,-83 535,-83 535,-83 541,-83 547,-89 547,-95 547,-95 547,-107 547,-107 547,-113 541,-119 535,-119"/>
<text text-anchor="middle" x="502" y="-97.3" font-family="Times New Roman,serif" font-size="14.00" fill="#314b5f">psr/log: 1.0.2</text>
</g>
<!-- aura/router&#45;&gt;psr/log -->
<g id="edge25" class="edge"><title>aura/router&#45;&gt;psr/log</title>
<path fill="none" stroke="#1a2833" d="M333.786,-298.828C351.749,-264.904 395.447,-188.154 448,-137 452.359,-132.757 457.307,-128.735 462.396,-125.033"/>
<polygon fill="#1a2833" stroke="#1a2833" points="464.748,-127.664 471.015,-119.121 460.789,-121.891 464.748,-127.664"/>
<text text-anchor="middle" x="409.5" y="-206.5" font-family="Times New Roman,serif" font-size="10.00" fill="#767676">~1.0</text>
</g>
<!-- zendframework/zend&#45;diactoros&#45;&gt;php -->
<g id="edge37" class="edge"><title>zendframework/zend&#45;diactoros&#45;&gt;php</title>
<path fill="none" stroke="#1a2833" d="M140.924,-190.729C143.047,-165.122 150.034,-116.511 173,-83 185.413,-64.8868 192.427,-61.6753 213,-54 279.317,-29.2593 491.411,-21.7692 577.827,-19.7114"/>
<polygon fill="#1a2833" stroke="#1a2833" points="578.046,-23.2075 587.964,-19.4814 577.887,-16.2093 578.046,-23.2075"/>
<text text-anchor="middle" x="193" y="-98.5" font-family="Times New Roman,serif" font-size="10.00" fill="#767676">^5.4 || ^7.0</text>
</g>
<!-- zendframework/zend&#45;diactoros&#45;&gt;psr/http&#45;message -->
<g id="edge38" class="edge"><title>zendframework/zend&#45;diactoros&#45;&gt;psr/http&#45;message</title>
<path fill="none" stroke="#1a2833" d="M225.88,-190.895C239.216,-186.256 252.4,-180.395 264,-173 281.805,-161.65 280.865,-152.685 295,-137 298.038,-133.629 301.274,-130.111 304.486,-126.662"/>
<polygon fill="#1a2833" stroke="#1a2833" points="307.102,-128.989 311.394,-119.303 301.998,-124.198 307.102,-128.989"/>
<text text-anchor="middle" x="303.5" y="-152.5" font-family="Times New Roman,serif" font-size="10.00" fill="#767676">~1.0</text>
</g>
<!-- typo3fluid/fluid&#45;&gt;php -->
<g id="edge35" class="edge"><title>typo3fluid/fluid&#45;&gt;php</title>
<path fill="none" stroke="#1a2833" d="M414.202,-435.578C411.547,-370.065 405.438,-139.35 448,-83 478.75,-42.2888 538.827,-27.4724 577.915,-22.0815"/>
<polygon fill="#1a2833" stroke="#1a2833" points="578.361,-25.5531 587.855,-20.8503 577.501,-18.6061 578.361,-25.5531"/>
<text text-anchor="middle" x="429.5" y="-260.5" font-family="Times New Roman,serif" font-size="10.00" fill="#767676">&gt;=5.5.0</text>
</g>
<!-- apparat/resource&#45;&gt;php -->
<g id="edge21" class="edge"><title>apparat/resource&#45;&gt;php</title>
<path fill="none" stroke="#1a2833" d="M856.731,-381.841C869.957,-359.582 891.7,-319.082 900,-281 919.064,-193.53 908.27,-160.234 863,-83 854.953,-69.2712 855.579,-62.2976 842,-54 810.914,-35.0041 708.557,-25.2943 652.507,-21.2921"/>
<polygon fill="#1a2833" stroke="#1a2833" points="652.495,-17.7831 642.279,-20.5884 652.015,-24.7666 652.495,-17.7831"/>
<text text-anchor="middle" x="923.5" y="-206.5" font-family="Times New Roman,serif" font-size="10.00" fill="#767676">&gt;=5.6.0</text>
</g>
<!-- apparat/resource&#45;&gt;apparat/kernel -->
<g id="edge19" class="edge"><title>apparat/resource&#45;&gt;apparat/kernel</title>
<path fill="none" stroke="#1a2833" d="M807.119,-381.868C796.166,-376.571 784.406,-370.427 774,-364 763.094,-357.264 751.778,-348.974 741.951,-341.295"/>
<polygon fill="#1a2833" stroke="#1a2833" points="744.092,-338.525 734.088,-335.036 739.732,-344.002 744.092,-338.525"/>
<text text-anchor="middle" x="796.5" y="-356" font-family="Times New Roman,serif" font-size="10.00" fill="#767676">dev&#45;master</text>
</g>
<!-- apparat/resource&#45;&gt;league/commonmark -->
<g id="edge20" class="edge"><title>apparat/resource&#45;&gt;league/commonmark</title>
<path fill="none" stroke="#1a2833" d="M878.023,-381.822C900.822,-369.592 931.645,-353.058 956.206,-339.883"/>
<polygon fill="#1a2833" stroke="#1a2833" points="958.124,-342.826 965.282,-335.014 954.815,-336.657 958.124,-342.826"/>
<text text-anchor="middle" x="941.5" y="-356" font-family="Times New Roman,serif" font-size="10.00" fill="#767676">^0.13</text>
</g>
<!-- symfony/yaml -->
<g id="node15" class="node"><title>symfony/yaml</title>
<path fill="#eeeeee" stroke="black" d="M886.5,-281C886.5,-281 773.5,-281 773.5,-281 767.5,-281 761.5,-275 761.5,-269 761.5,-269 761.5,-257 761.5,-257 761.5,-251 767.5,-245 773.5,-245 773.5,-245 886.5,-245 886.5,-245 892.5,-245 898.5,-251 898.5,-257 898.5,-257 898.5,-269 898.5,-269 898.5,-275 892.5,-281 886.5,-281"/>
<text text-anchor="middle" x="830" y="-259.3" font-family="Times New Roman,serif" font-size="14.00" fill="#314b5f">symfony/yaml: v3.2.1</text>
</g>
<!-- apparat/resource&#45;&gt;symfony/yaml -->
<g id="edge22" class="edge"><title>apparat/resource&#45;&gt;symfony/yaml</title>
<path fill="none" stroke="#1a2833" d="M843.974,-381.902C841.271,-359.103 836.457,-318.479 833.246,-291.386"/>
<polygon fill="#1a2833" stroke="#1a2833" points="836.713,-290.904 832.06,-281.385 829.762,-291.728 836.713,-290.904"/>
<text text-anchor="middle" x="850" y="-356" font-family="Times New Roman,serif" font-size="10.00" fill="#767676">^3.1</text>
</g>
<!-- apparat/kernel&#45;&gt;php -->
<g id="edge11" class="edge"><title>apparat/kernel&#45;&gt;php</title>
<path fill="none" stroke="#1a2833" d="M726.38,-298.572C743.944,-272.662 775.269,-221.783 787,-173 790.741,-157.444 793.257,-151.726 787,-137 762.891,-80.2611 694.785,-46.8025 651.859,-30.7527"/>
<polygon fill="#1a2833" stroke="#1a2833" points="652.913,-27.4124 642.319,-27.3162 650.541,-33.9982 652.913,-27.4124"/>
<text text-anchor="middle" x="805.5" y="-152.5" font-family="Times New Roman,serif" font-size="10.00" fill="#767676">&gt;=5.6.0</text>
</g>
<!-- level&#45;2/dice -->
<g id="node10" class="node"><title>level&#45;2/dice</title>
<path fill="#eeeeee" stroke="black" d="M586,-173C586,-173 496,-173 496,-173 490,-173 484,-167 484,-161 484,-161 484,-149 484,-149 484,-143 490,-137 496,-137 496,-137 586,-137 586,-137 592,-137 598,-143 598,-149 598,-149 598,-161 598,-161 598,-167 592,-173 586,-173"/>
<text text-anchor="middle" x="541" y="-151.3" font-family="Times New Roman,serif" font-size="14.00" fill="#314b5f">level&#45;2/dice: 2.0.3</text>
</g>
<!-- apparat/kernel&#45;&gt;level&#45;2/dice -->
<g id="edge9" class="edge"><title>apparat/kernel&#45;&gt;level&#45;2/dice</title>
<path fill="none" stroke="#1a2833" d="M632.12,-299.853C591.746,-287.272 546.727,-265.233 523,-227 514.665,-213.568 518.669,-196.439 524.994,-182.371"/>
<polygon fill="#1a2833" stroke="#1a2833" points="528.24,-183.708 529.621,-173.204 521.991,-180.554 528.24,-183.708"/>
<text text-anchor="middle" x="589.5" y="-260.5" font-family="Times New Roman,serif" font-size="10.00" fill="#767676">2.*</text>
</g>
<!-- monolog/monolog -->
<g id="node11" class="node"><title>monolog/monolog</title>
<path fill="#eeeeee" stroke="black" d="M681.5,-227C681.5,-227 544.5,-227 544.5,-227 538.5,-227 532.5,-221 532.5,-215 532.5,-215 532.5,-203 532.5,-203 532.5,-197 538.5,-191 544.5,-191 544.5,-191 681.5,-191 681.5,-191 687.5,-191 693.5,-197 693.5,-203 693.5,-203 693.5,-215 693.5,-215 693.5,-221 687.5,-227 681.5,-227"/>
<text text-anchor="middle" x="613" y="-205.3" font-family="Times New Roman,serif" font-size="14.00" fill="#314b5f">monolog/monolog: 1.22.0</text>
</g>
<!-- apparat/kernel&#45;&gt;monolog/monolog -->
<g id="edge10" class="edge"><title>apparat/kernel&#45;&gt;monolog/monolog</title>
<path fill="none" stroke="#1a2833" d="M697.773,-298.969C681.232,-281.61 655.404,-254.503 636.601,-234.769"/>
<polygon fill="#1a2833" stroke="#1a2833" points="638.955,-232.166 629.523,-227.341 633.887,-236.995 638.955,-232.166"/>
<text text-anchor="middle" x="684.5" y="-260.5" font-family="Times New Roman,serif" font-size="10.00" fill="#767676">1.x</text>
</g>
<!-- vlucas/phpdotenv -->
<g id="node12" class="node"><title>vlucas/phpdotenv</title>
<path fill="#eeeeee" stroke="black" d="M773.5,-173C773.5,-173 640.5,-173 640.5,-173 634.5,-173 628.5,-167 628.5,-161 628.5,-161 628.5,-149 628.5,-149 628.5,-143 634.5,-137 640.5,-137 640.5,-137 773.5,-137 773.5,-137 779.5,-137 785.5,-143 785.5,-149 785.5,-149 785.5,-161 785.5,-161 785.5,-167 779.5,-173 773.5,-173"/>
<text text-anchor="middle" x="707" y="-151.3" font-family="Times New Roman,serif" font-size="14.00" fill="#314b5f">vlucas/phpdotenv: v2.4.0</text>
</g>
<!-- apparat/kernel&#45;&gt;vlucas/phpdotenv -->
<g id="edge12" class="edge"><title>apparat/kernel&#45;&gt;vlucas/phpdotenv</title>
<path fill="none" stroke="#1a2833" d="M713.251,-298.877C712.047,-271.354 709.669,-217.008 708.218,-183.849"/>
<polygon fill="#1a2833" stroke="#1a2833" points="711.699,-183.322 707.765,-173.485 704.705,-183.628 711.699,-183.322"/>
<text text-anchor="middle" x="719.5" y="-260.5" font-family="Times New Roman,serif" font-size="10.00" fill="#767676">2.*</text>
</g>
<!-- level&#45;2/dice&#45;&gt;php -->
<g id="edge29" class="edge"><title>level&#45;2/dice&#45;&gt;php</title>
<path fill="none" stroke="#1a2833" d="M550.372,-136.902C563.036,-113.8 585.73,-72.3974 600.576,-45.3144"/>
<polygon fill="#1a2833" stroke="#1a2833" points="603.733,-46.8368 605.47,-36.3854 597.594,-43.4721 603.733,-46.8368"/>
<text text-anchor="middle" x="594.5" y="-98.5" font-family="Times New Roman,serif" font-size="10.00" fill="#767676">&gt;=5.6.0</text>
</g>
<!-- monolog/monolog&#45;&gt;php -->
<g id="edge30" class="edge"><title>monolog/monolog&#45;&gt;php</title>
<path fill="none" stroke="#1a2833" d="M613.181,-190.894C613.529,-158.016 614.294,-85.7611 614.712,-46.2036"/>
<polygon fill="#1a2833" stroke="#1a2833" points="618.212,-46.2399 614.818,-36.2034 611.212,-46.1657 618.212,-46.2399"/>
<text text-anchor="middle" x="629.5" y="-98.5" font-family="Times New Roman,serif" font-size="10.00" fill="#767676">&gt;=5.3.0</text>
</g>
<!-- monolog/monolog&#45;&gt;psr/log -->
<g id="edge31" class="edge"><title>monolog/monolog&#45;&gt;psr/log</title>
<path fill="none" stroke="#1a2833" d="M532.323,-199.049C499.909,-193.639 467.862,-185.337 458,-173 448.01,-160.502 451.049,-151.411 458,-137 459.861,-133.143 462.376,-129.579 465.267,-126.323"/>
<polygon fill="#1a2833" stroke="#1a2833" points="467.794,-128.748 472.562,-119.286 462.935,-123.709 467.794,-128.748"/>
<text text-anchor="middle" x="466.5" y="-152.5" font-family="Times New Roman,serif" font-size="10.00" fill="#767676">~1.0</text>
</g>
<!-- vlucas/phpdotenv&#45;&gt;php -->
<g id="edge36" class="edge"><title>vlucas/phpdotenv&#45;&gt;php</title>
<path fill="none" stroke="#1a2833" d="M702.997,-136.842C697.192,-115.216 684.579,-77.9781 662,-54 658.164,-49.9263 653.807,-45.9875 649.33,-42.3137"/>
<polygon fill="#1a2833" stroke="#1a2833" points="651.27,-39.3893 641.227,-36.015 646.974,-44.9158 651.27,-39.3893"/>
<text text-anchor="middle" x="712.5" y="-98.5" font-family="Times New Roman,serif" font-size="10.00" fill="#767676">&gt;=5.3.9</text>
</g>
<!-- league/commonmark&#45;&gt;php -->
<g id="edge28" class="edge"><title>league/commonmark&#45;&gt;php</title>
<path fill="none" stroke="#1a2833" d="M1013.16,-298.692C1033.56,-274.641 1064.27,-229.7 1049,-191 1018.42,-113.483 995.421,-91.4871 921,-54 874.782,-30.7192 723.516,-22.6345 652.48,-20.0758"/>
<polygon fill="#1a2833" stroke="#1a2833" points="652.313,-16.5681 642.199,-19.7241 652.074,-23.564 652.313,-16.5681"/>
<text text-anchor="middle" x="1056.5" y="-152.5" font-family="Times New Roman,serif" font-size="10.00" fill="#767676">&gt;=5.4.8</text>
</g>
<!-- ext&#45;mbstring -->
<g id="node17" class="node"><title>ext&#45;mbstring</title>
<path fill="#eeeeee" stroke="black" d="M1028,-227C1028,-227 966,-227 966,-227 960,-227 954,-221 954,-215 954,-215 954,-203 954,-203 954,-197 960,-191 966,-191 966,-191 1028,-191 1028,-191 1034,-191 1040,-197 1040,-203 1040,-203 1040,-215 1040,-215 1040,-221 1034,-227 1028,-227"/>
<text text-anchor="middle" x="997" y="-205.3" font-family="Times New Roman,serif" font-size="14.00" fill="#314b5f">ext&#45;mbstring</text>
</g>
<!-- league/commonmark&#45;&gt;ext&#45;mbstring -->
<g id="edge27" class="edge"><title>league/commonmark&#45;&gt;ext&#45;mbstring</title>
<path fill="none" stroke="#1a2833" d="M997,-298.969C997,-282.378 997,-256.883 997,-237.431"/>
<polygon fill="#1a2833" stroke="#1a2833" points="1000.5,-237.341 997,-227.341 993.5,-237.341 1000.5,-237.341"/>
<text text-anchor="middle" x="1000" y="-260.5" font-family="Times New Roman,serif" font-size="10.00" fill="#767676">*</text>
</g>
<!-- psr/http&#45;message&#45;&gt;php -->
<g id="edge32" class="edge"><title>psr/http&#45;message&#45;&gt;php</title>
<path fill="none" stroke="#1a2833" d="M344.695,-82.8494C355.514,-72.7974 370.449,-60.7792 386,-54 449.276,-26.4158 530.639,-20.0865 577.395,-18.9107"/>
<polygon fill="#1a2833" stroke="#1a2833" points="577.732,-22.4052 587.666,-18.7221 577.603,-15.4064 577.732,-22.4052"/>
<text text-anchor="middle" x="400.5" y="-57" font-family="Times New Roman,serif" font-size="10.00" fill="#767676">&gt;=5.3.0</text>
</g>
<!-- symfony/yaml&#45;&gt;php -->
<g id="edge34" class="edge"><title>symfony/yaml&#45;&gt;php</title>
<path fill="none" stroke="#1a2833" d="M836.167,-244.946C849.388,-205.017 875.217,-104.993 823,-54 799.36,-30.9141 705.682,-22.9836 652.462,-20.3135"/>
<polygon fill="#1a2833" stroke="#1a2833" points="652.541,-16.8135 642.39,-19.8467 652.217,-23.806 652.541,-16.8135"/>
<text text-anchor="middle" x="869.5" y="-152.5" font-family="Times New Roman,serif" font-size="10.00" fill="#767676">&gt;=5.5.9</text>
</g>
<!-- psr/log&#45;&gt;php -->
<g id="edge33" class="edge"><title>psr/log&#45;&gt;php</title>
<path fill="none" stroke="#1a2833" d="M513.459,-82.6397C520.31,-73.255 529.677,-61.9867 540,-54 551.411,-45.1716 565.408,-37.8844 578.207,-32.2875"/>
<polygon fill="#1a2833" stroke="#1a2833" points="579.81,-35.4116 587.699,-28.3394 577.122,-28.9484 579.81,-35.4116"/>
<text text-anchor="middle" x="554.5" y="-57" font-family="Times New Roman,serif" font-size="10.00" fill="#767676">&gt;=5.3.0</text>
</g>
</g>
</svg>
